<?xml version="1.0" encoding="utf-8"?>
<svg version="1.1" xmlns="http://www.w3.org/2000/svg" xmlns:xlink="http://www.w3.org/1999/xlink">
    <symbol id="time" viewBox="0 0 32 32">
        <g>
            <path d="M11.99 2C6.47 2 2 6.48 2 12s4.47 10 9.99 10C17.52 22 22 17.52 22 12S17.52 2 11.99 2zM12 20c-4.42 0-8-3.58-8-8s3.58-8 8-8 8 3.58 8 8-3.58 8-8 8z" >
            </path>
            <path d="M0 0h24v24H0z" fill="none" >
            </path>
            <path d="M12.5 7H11v6l5.25 3.15.75-1.23-4.5-2.67z" >
            </path>
        </g>
    </symbol>
    <symbol id="duration" viewBox="0 0 32 32">
        <g>
            <path d="M0 0h24v24H0z" fill="none" >
            </path>
            <path d="M16.24 7.76C15.07 6.59 13.54 6 12 6v6l-4.24 4.24c2.34 2.34 6.14 2.34 8.49 0 2.34-2.34 2.34-6.14-.01-8.48zM12 2C6.48 2 2 6.48 2 12s4.48 10 10 10 10-4.48 10-10S17.52 2 12 2zm0 18c-4.42 0-8-3.58-8-8s3.58-8 8-8 8 3.58 8 8-3.58 8-8 8z" >
            </path>
        </g>
    </symbol>
    <symbol id="add" viewBox="0 0 24 24">
        <g>
            <path d="M19,19V7H5V19H19M16,1H18V3H19A2,2 0 0,1 21,5V19A2,2 0 0,1 19,21H5C3.89,21 3,20.1 3,19V5C3,3.89 3.89,3 5,3H6V1H8V3H16V1M11,9H13V12H16V14H13V17H11V14H8V12H11V9Z" >
            </path>
        </g>
    </symbol>
    <symbol id="update" viewBox="0 0 24 24">
        <g>
            <path d="M19,19H5V8H19M19,3H18V1H16V3H8V1H6V3H5C3.89,3 3,3.9 3,5V19A2,2 0 0,0 5,21H19A2,2 0 0,0 21,19V5A2,2 0 0,0 19,3M16.53,11.06L15.47,10L10.59,14.88L8.47,12.76L7.41,13.82L10.59,17L16.53,11.06Z" >
            </path>
        </g>
    </symbol>
    <symbol id="delete" viewBox="0 0 24 24">
        <g>
            <path d="M19,19H5V8H19M19,3H18V1H16V3H8V1H6V3H5C3.89,3 3,3.9 3,5V19A2,2 0 0,0 5,21H19A2,2 0 0,0 21,19V5A2,2 0 0,0 19,3M9.31,17L11.75,14.56L14.19,17L15.25,15.94L12.81,13.5L15.25,11.06L14.19,10L11.75,12.44L9.31,10L8.25,11.06L10.69,13.5L8.25,15.94L9.31,17Z" >
            </path>
        </g>
    </symbol>
    <symbol id="rewind" viewBox="0 0 24 24">
        <g>
            <path d="M11.5,12L20,18V6M11,18V6L2.5,12L11,18Z" >
            </path>
        </g>
    </symbol>
    <symbol id="forward" viewBox="0 0 24 24">
        <g>
            <path d="M13,6V18L21.5,12M4,18L12.5,12L4,6V18Z" >
            </path>
        </g>
    </symbol>
    <symbol id="search-minus" viewBox="0 0 24 24">
        <g>
            <path d="M15.5,14H14.71L14.43,13.73C15.41,12.59 16,11.11 16,9.5A6.5,6.5 0 0,0 9.5,3A6.5,6.5 0 0,0 3,9.5A6.5,6.5 0 0,0 9.5,16C11.11,16 12.59,15.41 13.73,14.43L14,14.71V15.5L19,20.5L20.5,19L15.5,14M9.5,14C7,14 5,12 5,9.5C5,7 7,5 9.5,5C12,5 14,7 14,9.5C14,12 12,14 9.5,14M7,9H12V10H7V9Z" >
            </path>
        </g>
    </symbol>
    <symbol id="search-plus" viewBox="0 0 24 24">
        <g>
            <path d="M15.5,14L20.5,19L19,20.5L14,15.5V14.71L13.73,14.43C12.59,15.41 11.11,16 9.5,16A6.5,6.5 0 0,1 3,9.5A6.5,6.5 0 0,1 9.5,3A6.5,6.5 0 0,1 16,9.5C16,11.11 15.41,12.59 14.43,13.73L14.71,14H15.5M9.5,14C12,14 14,12 14,9.5C14,7 12,5 9.5,5C7,5 5,7 5,9.5C5,12 7,14 9.5,14M12,10H10V12H9V10H7V9H9V7H10V9H12V10Z" >
            </path>
        </g>
    </symbol>
</svg>